<?xml version="1.0" encoding="UTF-8" standalone="no"?>
<svg
   xmlns:dc="http://purl.org/dc/elements/1.1/"
   xmlns:cc="http://creativecommons.org/ns#"
   xmlns:rdf="http://www.w3.org/1999/02/22-rdf-syntax-ns#"
   xmlns:svg="http://www.w3.org/2000/svg"
   xmlns="http://www.w3.org/2000/svg"
   xmlns:sodipodi="http://sodipodi.sourceforge.net/DTD/sodipodi-0.dtd"
   xmlns:inkscape="http://www.inkscape.org/namespaces/inkscape"
   version="1.1"
   width="1000"
   height="356.39401"
   viewBox="135.5 361.375 1000 356.39403"
   overflow="visible"
   enable-background="new 135.5 361.375 200 72"
   xml:space="preserve"
   id="svg2"
   inkscape:version="0.91 r13725"
   sodipodi:docname="Nike.svg"
   style="overflow:visible"><metadata
   id="metadata10"><rdf:RDF><cc:Work
       rdf:about=""><dc:format>image/svg+xml</dc:format><dc:type
         rdf:resource="http://purl.org/dc/dcmitype/StillImage" /><dc:title></dc:title></cc:Work></rdf:RDF></metadata><defs
   id="defs8" /><sodipodi:namedview
   pagecolor="#ffffff"
   bordercolor="#666666"
   borderopacity="1"
   objecttolerance="10"
   gridtolerance="10"
   guidetolerance="10"
   inkscape:pageopacity="0"
   inkscape:pageshadow="2"
   inkscape:window-width="1366"
   inkscape:window-height="705"
   id="namedview6"
   showgrid="false"
   inkscape:zoom="0.5"
   inkscape:cx="894.24636"
   inkscape:cy="159.43682"
   inkscape:window-x="-8"
   inkscape:window-y="-8"
   inkscape:window-maximized="1"
   inkscape:current-layer="svg2" />
<path
   d="m 245.8075,717.62406 c -29.79588,-1.1837 -54.1734,-9.3368 -73.23459,-24.4796 -3.63775,-2.8928 -12.30611,-11.5663 -15.21427,-15.2245 -7.72958,-9.7193 -12.98467,-19.1785 -16.48977,-29.6734 -10.7857,-32.3061 -5.23469,-74.6989 15.87753,-121.2243 18.0765,-39.8316 45.96932,-79.3366 94.63252,-134.0508 7.16836,-8.0511 28.51526,-31.5969 28.65302,-31.5969 0.051,0 -1.11225,2.0153 -2.57652,4.4694 -12.65304,21.1938 -23.47957,46.158 -29.37751,67.7703 -9.47448,34.6785 -8.33163,64.4387 3.34693,87.5151 8.05611,15.898 21.86731,29.6684 37.3979,37.2806 27.18874,13.3214 66.9948,14.4235 115.60699,3.2245 3.34694,-0.7755 169.19363,-44.801 368.55048,-97.8366 199.35686,-53.0408 362.49439,-96.4029 362.51989,-96.3672 0.056,0.046 -463.16259,198.2599 -703.62654,301.0914 -38.08158,16.2806 -48.26521,20.3928 -66.16827,26.6785 -45.76525,16.0714 -86.76008,23.7398 -119.89779,22.4235 z"
   id="path4"
   inkscape:connector-curvature="0" />
</svg>