<svg xmlns="http://www.w3.org/2000/svg" viewBox="0 0 32 32"><path fill="#FFF" d="M16 31.25C7.591 31.25.75 24.409.75 16 .75 7.591 7.591.75 16 .75 24.409.75 31.25 7.591 31.25 16c0 8.409-6.841 15.25-15.25 15.25z"/><path fill="#E8E8E8" d="M16 1.5c7.995 0 14.5 6.505 14.5 14.5S23.995 30.5 16 30.5 1.5 23.995 1.5 16 8.005 1.5 16 1.5M16 0C7.163 0 0 7.163 0 16c0 8.836 7.163 16 16 16s16-7.164 16-16c0-8.837-7.163-16-16-16z"/><path fill="#333" d="M13.69 24.903h3.679v-8.904h2.454l.325-3.068h-2.779l.004-1.536c0-.8.076-1.229 1.224-1.229h1.534V7.097h-2.455c-2.949 0-3.986 1.489-3.986 3.992v1.842h-1.838V16h1.838v8.903z"/></svg>